{"glyphs":{"0":{"ha":896,"x_min":0,"x_max":0,"o":"m 447 949 b 83 476 168 949 83 667 b 447 -8 83 281 168 -8 b 813 476 726 -8 813 281 b 447 949 813 667 726 949 z m 447 185 b 294 476 314 185 294 408 b 447 754 294 544 314 754 b 599 476 581 754 599 544 b 447 185 599 408 581 185 z "},"1":{"ha":597,"x_min":0,"x_max":0,"o":"m 472 942 l 386 942 l 56 713 l 149 564 l 261 626 l 261 0 l 472 0 z "},"2":{"ha":751,"x_min":0,"x_max":0,"o":"m 171 644 b 372 757 249 719 321 757 b 460 679 439 757 460 721 b 396 542 460 663 450 618 l 42 13 l 46 0 l 643 0 l 643 200 l 399 200 l 551 415 b 667 674 613 497 664 599 b 371 950 674 860 538 950 b 44 779 269 950 154 897 z "},"3":{"ha":768,"x_min":0,"x_max":0,"o":"m 685 671 b 369 956 685 774 628 956 b 57 821 222 956 124 883 l 179 676 b 369 768 231 725 317 768 b 481 671 426 768 481 736 b 369 564 481 603 426 564 l 242 564 l 242 376 l 369 376 b 481 271 426 376 481 339 b 369 174 481 206 426 174 b 178 269 317 174 231 218 l 56 124 b 369 -14 122 61 222 -14 b 685 271 628 -14 685 168 b 582 471 685 340 653 438 b 685 671 651 513 685 597 z "},"4":{"ha":771,"x_min":0,"x_max":0,"o":"m 613 176 l 729 176 l 729 372 l 613 372 l 613 943 l 446 943 l 42 300 l 42 176 l 397 176 l 397 0 l 613 0 z m 397 526 l 397 372 l 297 372 z "},"5":{"ha":806,"x_min":0,"x_max":0,"o":"m 83 156 b 392 -8 158 60 263 -8 b 722 301 657 -8 722 200 b 392 613 722 426 658 613 l 368 613 l 368 749 l 665 749 l 665 943 l 149 943 l 149 425 l 392 425 b 514 307 472 425 514 367 b 393 186 514 246 471 186 b 226 283 349 186 285 211 z "},"6":{"ha":815,"x_min":0,"x_max":0,"o":"m 496 960 b 83 314 306 857 83 646 b 408 -8 83 217 143 -8 b 732 303 672 -8 732 206 b 433 621 732 426 678 607 b 383 617 413 621 399 619 b 600 801 438 681 517 756 z m 408 188 b 290 308 331 188 290 247 b 408 428 293 371 331 428 b 525 308 488 428 525 368 b 408 188 525 247 485 188 z "},"7":{"ha":696,"x_min":0,"x_max":0,"o":"m 42 749 l 357 749 l 65 0 l 286 0 l 654 932 l 649 943 l 42 943 z "},"8":{"ha":799,"x_min":0,"x_max":0,"o":"m 714 665 b 400 947 718 765 657 947 b 83 665 143 947 83 768 b 189 472 83 579 122 506 b 86 276 126 439 86 340 b 400 -8 86 175 143 -8 b 714 278 657 -8 714 176 b 606 471 714 339 688 425 b 714 665 689 522 713 617 z m 400 179 b 290 276 344 179 290 211 b 400 375 290 342 344 375 b 508 276 456 375 508 342 b 400 179 508 215 456 179 z m 400 567 b 290 665 344 567 290 600 b 400 760 290 729 344 760 b 508 665 456 760 508 729 b 400 567 508 600 456 567 z "},"9":{"ha":815,"x_min":0,"x_max":0,"o":"m 319 -17 b 732 629 510 86 732 297 b 407 951 732 726 672 951 b 83 640 143 951 83 738 b 382 322 83 517 138 336 b 432 326 403 322 417 324 b 215 142 378 263 299 188 z m 407 756 b 525 635 485 756 525 696 b 407 515 522 572 485 515 b 290 635 328 515 290 575 b 407 756 290 696 331 756 z "}," ":{"ha":417,"x_min":0,"x_max":0,"o":""},"$":{"ha":911,"x_min":0,"x_max":0,"o":"m 333 707 b 444 778 332 760 386 778 b 713 706 533 778 664 725 l 794 894 b 531 978 689 943 599 967 l 531 1110 l 381 1110 l 381 985 b 110 697 221 967 110 863 b 426 397 110 497 286 443 b 593 281 518 368 593 342 b 460 197 593 232 532 197 b 182 281 372 197 278 235 l 83 94 b 381 -6 182 40 275 6 l 381 -135 l 531 -135 l 531 -7 b 828 290 708 15 828 138 b 544 582 828 468 679 535 b 333 707 436 621 339 647 z "},"%":{"ha":1190,"x_min":0,"x_max":0,"o":"m 263 981 b 42 751 92 981 42 844 b 263 525 42 658 92 525 b 481 751 431 525 481 658 b 263 981 481 844 431 981 z m 263 686 b 210 751 215 686 210 733 b 263 818 210 771 215 818 b 313 751 307 818 313 771 b 263 686 313 733 307 686 z m 843 972 l 675 972 l 351 0 l 521 0 z m 931 449 b 711 219 761 449 711 313 b 931 -7 711 126 761 -7 b 1149 219 1099 -7 1149 126 b 931 449 1149 313 1099 449 z m 931 154 b 878 219 885 154 878 201 b 931 286 878 239 885 286 b 982 219 975 286 982 239 b 931 154 982 201 975 154 z "},"&":{"ha":1015,"x_min":0,"x_max":0,"o":"m 683 742 b 433 986 683 863 604 986 b 171 738 251 986 171 854 b 256 531 171 658 200 593 b 111 278 178 492 111 403 b 429 -18 111 126 240 -15 b 690 64 533 -18 619 7 l 792 -40 l 932 88 b 811 217 896 126 847 176 b 886 486 846 285 875 375 l 706 521 b 667 372 699 476 685 419 b 553 496 622 419 596 450 b 683 742 622 554 683 638 z m 368 739 b 429 803 368 761 381 803 b 486 740 465 803 486 771 b 424 635 486 693 458 661 b 368 739 394 663 368 696 z m 317 286 b 390 382 318 321 343 360 b 554 208 444 322 499 267 b 438 175 522 186 486 175 b 317 286 375 175 317 217 z "},"'":{"ha":314,"x_min":0,"x_max":0,"o":"m 258 975 l 56 975 l 89 621 l 225 621 z "},"(":{"ha":463,"x_min":0,"x_max":0,"o":"m 42 411 b 279 -293 42 186 111 -57 l 421 -208 b 244 413 307 1 244 214 b 421 1024 244 607 307 814 l 279 1110 b 42 411 113 872 42 636 z "},")":{"ha":463,"x_min":0,"x_max":0,"o":"m 421 411 b 183 1110 421 636 350 872 l 42 1024 b 218 413 156 814 218 607 b 42 -208 218 214 156 1 l 183 -293 b 421 411 351 -57 421 186 z "},"*":{"ha":672,"x_min":0,"x_max":0,"o":"m 525 535 l 589 646 l 478 717 l 589 789 l 525 900 l 407 839 l 400 972 l 272 972 l 265 839 l 147 900 l 83 789 l 194 717 l 83 646 l 147 535 l 265 596 l 272 463 l 400 463 l 407 596 z "},"+":{"ha":775,"x_min":0,"x_max":0,"o":"m 304 194 l 471 194 l 471 388 l 664 388 l 664 553 l 471 553 l 471 746 l 304 746 l 304 553 l 111 553 l 111 388 l 304 388 z "},",":{"ha":471,"x_min":0,"x_max":0,"o":"m 207 -242 b 360 94 268 -172 360 3 b 232 226 360 158 328 226 b 111 106 168 226 111 172 b 193 -6 111 50 147 4 b 114 -189 186 -49 144 -137 z "},"-":{"ha":619,"x_min":0,"x_max":0,"o":"m 111 494 l 111 326 l 508 326 l 508 494 z "},".":{"ha":465,"x_min":0,"x_max":0,"o":"m 111 113 b 233 -8 111 46 168 -8 b 354 113 300 -8 354 46 b 233 235 354 181 300 235 b 111 113 168 235 111 181 z "},"/":{"ha":575,"x_min":0,"x_max":0,"o":"m 533 972 l 365 972 l 42 0 l 211 0 z "},":":{"ha":465,"x_min":0,"x_max":0,"o":"m 111 113 b 233 -8 111 46 168 -8 b 354 113 300 -8 354 46 b 233 235 354 181 300 235 b 111 113 168 235 111 181 z m 111 581 b 233 460 111 514 168 460 b 354 581 300 460 354 514 b 233 703 354 649 300 703 b 111 581 168 703 111 649 z "},";":{"ha":471,"x_min":0,"x_max":0,"o":"m 207 -242 b 360 94 268 -172 360 3 b 232 226 360 158 328 226 b 111 106 168 226 111 172 b 193 -6 111 50 147 4 b 114 -189 186 -49 144 -137 z m 111 579 b 233 458 111 513 168 458 b 354 579 300 458 354 513 b 233 701 354 647 300 701 b 111 579 168 701 111 647 z "},"<":{"ha":626,"x_min":0,"x_max":0,"o":"m 343 406 l 585 558 l 494 718 l 42 444 l 42 367 l 494 92 l 585 253 z "},"=":{"ha":708,"x_min":0,"x_max":0,"o":"m 597 535 l 597 699 l 111 699 l 111 535 z m 597 244 l 597 406 l 111 406 l 111 244 z "},">":{"ha":626,"x_min":0,"x_max":0,"o":"m 42 253 l 132 92 l 585 367 l 585 444 l 132 718 l 42 558 l 283 406 z "},"?":{"ha":806,"x_min":0,"x_max":0,"o":"m 514 404 b 694 739 514 457 694 574 b 433 988 694 900 583 988 b 111 811 308 988 217 943 l 239 692 b 419 799 321 772 357 799 b 481 738 472 799 481 756 b 314 407 481 615 314 564 l 314 292 l 514 292 z m 300 100 b 417 -17 300 28 350 -17 b 533 100 481 -17 533 33 b 417 215 533 165 481 215 b 300 100 350 215 300 165 z "},"@":{"ha":1592,"x_min":0,"x_max":0,"o":"m 806 1014 b 85 254 363 1014 82 689 b 669 -468 86 -61 278 -336 l 746 -311 b 267 254 406 -197 269 46 b 801 839 263 611 467 839 b 1324 339 1135 839 1324 622 b 1174 33 1324 168 1263 33 b 1119 97 1129 33 1121 64 l 1119 632 l 992 632 l 975 583 b 785 643 917 628 853 643 b 429 269 513 643 429 425 b 785 -104 429 115 513 -104 b 981 -39 854 -104 922 -85 b 1151 -133 1015 -100 1078 -133 b 1508 346 1417 -133 1508 135 b 806 1014 1508 725 1238 1014 z m 933 132 b 792 58 907 92 861 58 b 614 268 639 58 614 214 b 792 481 614 322 638 481 b 933 407 856 481 906 443 z "},"A":{"ha":1025,"x_min":0,"x_max":0,"o":"m 522 981 l 503 981 l 42 0 l 290 0 l 375 203 l 650 203 l 735 0 l 983 0 z m 513 533 l 576 378 l 447 378 z "},"B":{"ha":946,"x_min":0,"x_max":0,"o":"m 863 675 b 511 972 863 807 781 972 l 139 972 l 139 0 l 511 0 b 863 296 781 0 863 164 b 738 488 863 383 810 460 b 863 675 811 518 863 608 z m 528 574 l 360 574 l 360 767 l 525 767 b 638 675 622 767 638 697 b 528 574 638 649 624 576 z m 525 207 l 360 207 l 360 389 l 528 389 b 638 296 624 386 638 325 b 525 207 638 274 622 207 z "},"C":{"ha":1040,"x_min":0,"x_max":0,"o":"m 957 792 b 567 986 853 910 733 986 b 83 488 197 986 83 690 b 567 -12 83 279 197 -12 b 950 163 722 -12 844 57 l 822 315 b 568 200 756 254 654 200 b 310 488 342 200 310 415 b 567 776 310 560 342 776 b 808 649 649 776 753 715 z "},"D":{"ha":1054,"x_min":0,"x_max":0,"o":"m 489 0 b 971 488 858 0 971 279 b 489 972 971 690 858 972 l 139 972 l 139 0 z m 360 207 l 360 767 l 489 767 b 746 488 714 767 746 560 b 489 207 746 415 714 207 z "},"E":{"ha":894,"x_min":0,"x_max":0,"o":"m 713 376 l 713 583 l 361 583 l 361 765 l 811 765 l 811 972 l 139 972 l 139 0 l 811 0 l 811 207 l 361 207 l 361 376 z "},"F":{"ha":893,"x_min":0,"x_max":0,"o":"m 713 376 l 713 583 l 360 583 l 360 765 l 810 765 l 810 972 l 139 972 l 139 0 l 360 0 l 360 376 z "},"G":{"ha":1019,"x_min":0,"x_max":0,"o":"m 706 329 l 706 233 b 567 193 674 210 614 193 b 310 490 342 193 310 418 b 567 776 310 563 342 776 b 799 667 643 776 742 725 l 936 817 b 567 986 839 921 725 986 b 83 488 197 986 83 690 b 567 -12 83 279 197 -12 b 929 138 719 -12 833 42 l 929 533 l 521 533 l 521 329 z "},"H":{"ha":1082,"x_min":0,"x_max":0,"o":"m 363 376 l 722 376 l 722 0 l 943 0 l 943 972 l 722 972 l 722 583 l 363 583 l 363 972 l 139 972 l 139 0 l 363 0 z "},"I":{"ha":500,"x_min":0,"x_max":0,"o":"m 361 972 l 139 972 l 139 0 l 361 0 z "},"J":{"ha":890,"x_min":0,"x_max":0,"o":"m 28 303 b 390 -8 65 135 168 -8 b 751 383 683 -8 751 222 l 751 972 l 526 972 l 526 383 b 386 204 526 336 521 204 b 225 375 301 204 254 285 z "},"K":{"ha":1035,"x_min":0,"x_max":0,"o":"m 363 0 l 363 400 l 715 0 l 974 0 l 979 14 l 538 501 l 950 958 l 946 972 l 685 972 l 363 603 l 363 972 l 139 972 l 139 0 z "},"L":{"ha":797,"x_min":0,"x_max":0,"o":"m 363 972 l 139 972 l 139 0 l 714 0 l 714 207 l 363 207 z "},"M":{"ha":1406,"x_min":0,"x_max":0,"o":"m 711 -8 l 967 471 l 1128 0 l 1364 0 l 997 978 l 981 978 l 703 424 l 425 978 l 408 978 l 42 0 l 278 0 l 439 471 l 694 -8 z "},"N":{"ha":1083,"x_min":0,"x_max":0,"o":"m 139 979 l 139 0 l 363 0 l 363 500 l 929 -8 l 944 -3 l 944 972 l 722 972 l 722 482 l 154 985 z "},"O":{"ha":1132,"x_min":0,"x_max":0,"o":"m 567 989 b 83 488 197 989 83 690 b 567 -15 83 279 197 -15 b 1049 488 935 -15 1049 279 b 567 989 1049 690 935 989 z m 567 193 b 310 488 342 193 310 415 b 567 779 310 560 342 779 b 822 488 790 779 822 560 b 567 193 822 415 790 193 z "},"P":{"ha":949,"x_min":0,"x_max":0,"o":"m 363 326 l 531 326 b 865 651 694 326 865 457 b 514 972 865 783 783 972 l 139 972 l 139 0 l 363 0 z m 525 535 l 363 535 l 363 767 l 521 767 b 643 651 621 767 643 692 b 525 535 643 615 621 538 z "},"Q":{"ha":1171,"x_min":0,"x_max":0,"o":"m 567 989 b 83 488 197 989 83 690 b 567 -15 83 279 197 -15 b 681 -4 608 -15 646 -11 l 849 -199 l 1099 -199 l 1101 -192 l 874 83 b 1049 488 1003 188 1049 354 b 567 989 1049 690 935 989 z m 567 193 b 310 488 342 193 310 415 b 567 779 310 560 342 779 b 822 488 790 779 822 560 b 567 193 822 415 790 193 z "},"R":{"ha":946,"x_min":0,"x_max":0,"o":"m 360 326 l 458 326 l 611 0 l 854 0 l 683 364 b 863 651 788 415 863 514 b 511 972 863 783 781 972 l 139 972 l 139 0 l 360 0 z m 524 535 l 360 535 l 360 767 l 518 767 b 640 651 618 767 640 692 b 524 535 640 615 618 538 z "},"S":{"ha":911,"x_min":0,"x_max":0,"o":"m 333 707 b 444 778 332 760 386 778 b 722 704 533 778 674 724 l 804 893 b 431 988 631 979 494 988 b 110 697 244 988 110 879 b 426 397 110 497 286 443 b 593 281 518 368 593 342 b 460 197 593 232 532 197 b 182 281 372 197 278 235 l 83 94 b 468 -11 210 26 325 -11 b 828 290 681 -11 828 121 b 544 582 828 468 679 535 b 333 707 436 621 339 647 z "},"T":{"ha":860,"x_min":0,"x_max":0,"o":"m 317 0 l 540 0 l 540 765 l 797 765 l 797 972 l 63 972 l 63 765 l 317 765 z "},"U":{"ha":1028,"x_min":0,"x_max":0,"o":"m 514 196 b 347 382 382 196 347 331 l 347 972 l 125 972 l 125 382 b 514 -10 125 217 225 -10 b 903 382 803 -10 903 217 l 903 972 l 679 972 l 679 382 b 514 196 679 331 646 196 z "},"V":{"ha":1025,"x_min":0,"x_max":0,"o":"m 983 972 l 735 972 l 513 439 l 290 972 l 42 972 l 503 -8 l 522 -8 z "},"W":{"ha":1519,"x_min":0,"x_max":0,"o":"m 749 979 l 513 475 l 290 972 l 42 972 l 500 -6 l 519 -6 l 760 483 l 1000 -6 l 1019 -6 l 1478 972 l 1229 972 l 1007 475 l 771 979 z "},"X":{"ha":950,"x_min":0,"x_max":0,"o":"m 651 0 l 908 0 l 596 486 l 908 972 l 651 972 l 475 681 l 299 972 l 42 972 l 353 486 l 42 0 l 299 0 l 475 290 z "},"Y":{"ha":968,"x_min":0,"x_max":0,"o":"m 594 432 l 926 972 l 679 972 l 483 646 l 288 972 l 42 972 l 374 429 l 374 0 l 594 0 z "},"Z":{"ha":925,"x_min":0,"x_max":0,"o":"m 432 207 l 842 961 l 838 972 l 124 972 l 124 767 l 493 767 l 83 11 l 89 0 l 833 0 l 833 207 z "},"[":{"ha":385,"x_min":0,"x_max":0,"o":"m 42 -285 l 343 -285 l 343 -124 l 235 -124 l 235 925 l 343 925 l 343 1086 l 42 1086 z "},"\\":{"ha":575,"x_min":0,"x_max":0,"o":"m 364 0 l 533 0 l 210 972 l 42 972 z "},"]":{"ha":385,"x_min":0,"x_max":0,"o":"m 343 1086 l 42 1086 l 42 925 l 150 925 l 150 -124 l 42 -124 l 42 -285 l 343 -285 z "},"^":{"ha":953,"x_min":0,"x_max":0,"o":"m 199 481 l 476 731 l 754 481 l 869 596 l 481 985 l 472 985 l 83 596 z "},"_":{"ha":585,"x_min":0,"x_max":0,"o":"m 7 -126 l 578 -126 l 578 -4 l 7 -4 z "},"`":{"ha":708,"x_min":0,"x_max":0,"o":"m 232 1107 l 135 969 l 385 814 l 463 928 z "},"{":{"ha":456,"x_min":0,"x_max":0,"o":"m 414 -276 l 414 -117 l 383 -117 b 315 -15 376 -117 315 -114 l 315 275 b 244 401 315 335 276 383 b 315 529 278 419 315 467 l 315 819 b 383 919 315 918 378 919 l 414 919 l 414 1079 l 350 1079 b 124 829 343 1079 124 1072 l 124 529 b 82 472 124 494 103 472 l 42 472 l 42 331 l 83 331 b 124 274 101 329 124 310 l 124 -26 b 350 -276 124 -269 343 -276 z "},"|":{"ha":317,"x_min":0,"x_max":0,"o":"m 233 -279 l 233 1071 l 83 1071 l 83 -279 z "},"}":{"ha":456,"x_min":0,"x_max":0,"o":"m 106 -276 b 332 -26 113 -276 332 -269 l 332 274 b 372 331 332 310 354 329 l 414 331 l 414 472 l 374 472 b 332 529 353 472 332 494 l 332 829 b 106 1079 332 1072 113 1079 l 42 1079 l 42 919 l 72 919 b 140 819 78 919 140 918 l 140 529 b 211 401 140 467 178 419 b 140 275 179 383 140 335 l 140 -15 b 72 -117 140 -114 79 -117 l 42 -117 l 42 -276 z "},"~":{"ha":875,"x_min":0,"x_max":0,"o":"m 203 286 b 325 372 260 361 297 372 b 404 342 347 372 378 356 b 549 292 444 317 492 292 b 792 474 635 292 724 349 l 671 561 b 550 469 618 492 579 469 b 458 503 518 469 488 486 b 331 547 421 524 382 547 b 83 369 254 547 161 508 z "},"€":{"ha":810,"x_min":0,"x_max":0,"o":"m 53 432 l 14 300 l 131 300 b 469 -10 175 124 283 -10 b 750 138 575 -10 665 42 l 619 269 b 469 186 569 215 507 186 b 351 300 408 186 375 236 l 475 300 l 510 432 l 322 432 b 319 503 319 457 319 482 l 319 506 l 549 506 l 586 638 l 329 638 b 469 781 347 717 385 781 b 619 703 506 781 568 757 l 754 838 b 469 976 669 936 574 976 b 119 638 254 976 151 810 l 53 638 l 14 506 l 107 506 b 108 432 107 481 107 456 z "},"‚":{"ha":461,"x_min":0,"x_max":0,"o":"m 208 -233 b 350 89 261 -167 350 -3 b 226 214 350 150 318 214 b 114 100 161 214 114 164 b 189 -8 114 46 136 8 b 111 -186 178 -47 142 -135 z "},"ƒ":{"ha":542,"x_min":0,"x_max":0,"o":"m -129 -253 b 82 -310 -49 -292 26 -310 b 336 -68 222 -310 336 -232 l 336 507 l 460 507 l 460 694 l 336 694 l 336 739 b 390 792 336 776 363 792 b 526 761 419 792 476 782 l 590 928 b 379 985 510 967 435 985 b 125 743 239 985 125 907 l 125 694 l 56 694 l 56 507 l 125 507 l 125 -64 b 71 -117 125 -101 99 -117 b -65 -86 42 -117 -15 -107 z "},"„":{"ha":756,"x_min":0,"x_max":0,"o":"m 208 -233 b 350 89 261 -167 350 -3 b 226 214 350 150 318 214 b 114 100 161 214 114 164 b 189 -8 114 46 136 8 b 111 -186 178 -47 142 -135 z m 558 -233 b 700 89 611 -167 700 -3 b 576 214 700 150 668 214 b 464 100 511 214 464 164 b 539 -8 464 46 486 8 b 461 -186 528 -47 492 -135 z "},"…":{"ha":1083,"x_min":0,"x_max":0,"o":"m 111 107 b 228 -8 111 43 165 -8 b 343 107 292 -8 343 43 b 228 224 343 172 292 224 b 111 107 165 224 111 172 z m 453 107 b 569 -8 453 43 507 -8 b 685 107 633 -8 685 43 b 569 224 685 172 633 224 b 453 107 507 224 453 172 z m 796 107 b 913 -8 796 43 850 -8 b 1028 107 976 -8 1028 43 b 913 224 1028 172 976 224 b 796 107 850 224 796 172 z "},"†":{"ha":768,"x_min":0,"x_max":0,"o":"m 482 508 l 657 508 l 657 694 l 482 694 l 482 972 l 285 972 l 285 694 l 111 694 l 111 508 l 285 508 l 285 -221 l 482 -221 z "},"‡":{"ha":768,"x_min":0,"x_max":0,"o":"m 482 54 l 657 54 l 657 240 l 482 240 l 482 508 l 657 508 l 657 694 l 482 694 l 482 972 l 285 972 l 285 694 l 111 694 l 111 508 l 285 508 l 285 240 l 111 240 l 111 54 l 285 54 l 285 -221 l 482 -221 z "},"ˆ":{"ha":719,"x_min":0,"x_max":0,"o":"m 365 1107 l 135 928 l 213 814 l 365 908 l 518 814 l 596 928 z "},"‰":{"ha":1731,"x_min":0,"x_max":0,"o":"m 263 981 b 42 751 92 981 42 844 b 263 525 42 658 92 525 b 481 751 431 525 481 658 b 263 981 481 844 431 981 z m 263 686 b 210 751 215 686 210 733 b 263 818 210 771 215 818 b 313 751 307 818 313 771 b 263 686 313 733 307 686 z m 843 972 l 675 972 l 351 0 l 521 0 z m 931 449 b 711 219 761 449 711 313 b 931 -7 711 126 761 -7 b 1149 219 1099 -7 1149 126 b 931 449 1149 313 1099 449 z m 931 154 b 878 219 885 154 878 201 b 931 286 878 239 885 286 b 982 219 975 286 982 239 b 931 154 982 201 975 154 z m 1471 449 b 1251 219 1301 449 1251 313 b 1471 -7 1251 126 1301 -7 b 1689 219 1639 -7 1689 126 b 1471 449 1689 313 1639 449 z m 1471 154 b 1418 219 1425 154 1418 201 b 1471 286 1418 239 1425 286 b 1522 219 1515 286 1522 239 b 1471 154 1522 201 1515 154 z "},"Š":{"ha":911,"x_min":0,"x_max":0,"o":"m 333 707 b 444 778 332 760 386 778 b 722 704 533 778 674 724 l 804 893 b 431 988 631 979 494 988 b 110 697 244 988 110 879 b 426 397 110 497 286 443 b 593 281 518 368 593 342 b 460 197 593 232 532 197 b 182 281 372 197 278 235 l 83 94 b 468 -11 210 26 325 -11 b 828 290 681 -11 828 121 b 544 582 828 468 679 535 b 333 707 436 621 339 647 z m 456 1092 l 679 1265 l 607 1368 l 456 1275 l 304 1368 l 232 1265 z "},"‹":{"ha":457,"x_min":0,"x_max":0,"o":"m 260 356 l 415 549 l 304 644 l 42 364 l 42 346 l 304 64 l 415 160 z "},"Œ":{"ha":1444,"x_min":0,"x_max":0,"o":"m 1263 376 l 1263 583 l 911 583 l 911 765 l 1361 765 l 1361 972 l 706 972 b 567 989 664 982 618 989 b 83 488 197 989 83 690 b 567 -15 83 279 197 -15 b 704 0 617 -15 663 -10 l 1361 0 l 1361 207 l 911 207 l 911 376 z m 567 193 b 310 488 342 193 310 415 b 567 779 310 560 342 779 b 689 750 615 779 656 768 l 689 221 b 567 193 656 204 615 193 z "},"‘":{"ha":415,"x_min":0,"x_max":0,"o":"m 236 1017 b 83 681 175 947 83 772 b 211 549 83 617 115 549 b 332 669 275 549 332 603 b 250 781 332 725 296 771 b 329 964 257 824 299 913 z "},"’":{"ha":415,"x_min":0,"x_max":0,"o":"m 179 549 b 332 885 240 618 332 793 b 204 1017 332 949 300 1017 b 83 896 140 1017 83 963 b 165 785 83 840 119 794 b 86 601 158 742 117 653 z "},"“":{"ha":742,"x_min":0,"x_max":0,"o":"m 236 1017 b 83 681 175 947 83 772 b 211 549 83 617 115 549 b 332 669 275 549 332 603 b 250 781 332 725 296 771 b 329 964 257 824 299 913 z m 563 1017 b 410 681 501 947 410 772 b 538 549 410 617 442 549 b 658 669 601 549 658 603 b 576 781 658 725 622 771 b 656 964 583 824 625 913 z "},"”":{"ha":742,"x_min":0,"x_max":0,"o":"m 506 549 b 658 885 567 618 658 793 b 531 1017 658 949 626 1017 b 410 896 467 1017 410 963 b 492 785 410 840 446 794 b 413 601 485 742 443 653 z m 179 549 b 332 885 240 618 332 793 b 204 1017 332 949 300 1017 b 83 896 140 1017 83 963 b 165 785 83 840 119 794 b 86 601 158 742 117 653 z "},"•":{"ha":600,"x_min":0,"x_max":0,"o":"m 296 214 b 489 400 404 214 489 303 b 296 593 489 503 404 593 b 111 400 200 593 111 503 b 296 214 111 303 200 214 z "},"–":{"ha":764,"x_min":0,"x_max":0,"o":"m 654 358 l 654 524 l 111 524 l 111 358 z "},"—":{"ha":933,"x_min":0,"x_max":0,"o":"m 822 358 l 822 524 l 111 524 l 111 358 z "},"˜":{"ha":743,"x_min":0,"x_max":0,"o":"m 218 817 b 293 867 247 867 285 867 b 440 819 347 867 383 819 b 621 960 497 819 572 854 l 508 1029 b 438 979 476 978 449 979 b 283 1025 381 979 340 1025 b 106 886 226 1025 154 992 z "},"™":{"ha":943,"x_min":0,"x_max":0,"o":"m 149 672 l 274 672 l 274 931 l 361 931 l 361 1050 l 63 1050 l 63 931 l 149 931 z m 632 669 l 708 807 l 753 672 l 881 672 l 731 1049 l 710 1049 l 625 892 l 533 1049 l 514 1049 l 368 672 l 500 672 l 539 801 l 615 669 z "},"›":{"ha":457,"x_min":0,"x_max":0,"o":"m 42 160 l 153 64 l 415 346 l 415 364 l 153 644 l 42 549 l 197 356 z "},"a":{"ha":869,"x_min":0,"x_max":0,"o":"m 599 0 l 828 0 l 443 817 l 426 817 l 42 0 l 271 0 l 333 150 l 533 150 z m 433 385 l 478 279 l 389 279 z "},"b":{"ha":790,"x_min":0,"x_max":0,"o":"m 704 567 b 417 811 704 689 640 811 l 111 811 l 111 0 l 417 0 b 707 251 640 0 707 143 b 615 411 707 306 678 385 b 704 567 671 438 704 519 z m 317 492 l 317 615 l 426 615 b 494 561 486 615 494 572 b 431 492 494 540 488 493 z m 317 197 l 317 319 l 431 319 b 494 256 488 318 494 274 b 426 197 494 244 486 197 z "},"c":{"ha":863,"x_min":0,"x_max":0,"o":"m 807 658 b 476 824 713 760 613 824 b 83 410 175 824 83 574 b 476 -12 83 240 175 -12 b 804 140 606 -12 711 47 l 681 290 b 478 192 619 238 542 192 b 293 410 318 192 293 363 b 464 621 293 542 379 621 b 665 517 526 621 601 588 z "},"d":{"ha":879,"x_min":0,"x_max":0,"o":"m 403 0 b 796 415 703 0 796 246 b 403 813 796 579 703 813 l 111 813 l 111 0 z m 321 199 l 321 617 l 403 617 b 585 415 561 617 585 467 b 403 199 585 363 561 199 z "},"e":{"ha":756,"x_min":0,"x_max":0,"o":"m 594 308 l 594 507 l 321 507 l 321 614 l 672 614 l 672 811 l 111 811 l 111 0 l 672 0 l 672 199 l 321 199 l 321 308 z "},"g":{"ha":871,"x_min":0,"x_max":0,"o":"m 567 278 b 567 211 567 256 567 231 b 475 188 540 200 503 188 b 293 411 315 188 293 358 b 475 624 293 464 315 624 b 653 538 531 624 606 588 l 788 675 b 475 825 700 771 608 825 b 83 411 174 825 83 575 b 475 -12 83 242 174 -12 b 776 115 604 -12 697 42 l 776 454 l 431 454 l 431 278 z "},"h":{"ha":888,"x_min":0,"x_max":0,"o":"m 324 308 l 565 308 l 565 0 l 776 0 l 776 811 l 565 811 l 565 507 l 324 507 l 324 811 l 111 811 l 111 0 l 324 0 z "},"i":{"ha":435,"x_min":0,"x_max":0,"o":"m 324 806 l 111 806 l 111 0 l 324 0 z "},"j":{"ha":735,"x_min":0,"x_max":0,"o":"m 14 257 b 325 -6 57 110 143 -6 b 624 318 567 -6 624 186 l 624 811 l 414 811 l 414 318 b 325 197 414 285 411 197 b 201 331 267 197 224 256 z "},"k":{"ha":939,"x_min":0,"x_max":0,"o":"m 321 0 l 321 340 l 633 0 l 893 0 l 897 10 l 517 417 l 881 801 l 876 811 l 613 811 l 321 493 l 321 813 l 111 813 l 111 0 z "},"l":{"ha":689,"x_min":0,"x_max":0,"o":"m 324 813 l 111 813 l 111 0 l 633 0 l 633 199 l 324 199 z "},"m":{"ha":1192,"x_min":0,"x_max":0,"o":"m 603 -7 l 806 333 l 925 0 l 1150 0 l 840 818 l 825 818 l 596 382 l 367 818 l 351 818 l 42 0 l 267 0 l 386 333 l 589 -7 z "},"n":{"ha":888,"x_min":0,"x_max":0,"o":"m 111 804 l 111 0 l 322 0 l 322 369 l 764 -4 l 776 0 l 776 811 l 564 811 l 564 433 l 122 811 z "},"o":{"ha":953,"x_min":0,"x_max":0,"o":"m 475 822 b 83 410 174 822 83 574 b 475 -10 83 240 174 -10 b 869 410 779 -10 869 240 b 475 822 869 574 779 822 z m 475 190 b 292 410 315 190 292 357 b 475 622 292 463 315 622 b 657 410 635 622 657 463 b 475 190 657 357 635 190 z "},"p":{"ha":796,"x_min":0,"x_max":0,"o":"m 321 272 l 436 272 b 713 543 571 272 713 381 b 419 811 713 654 646 811 l 111 811 l 111 0 l 321 0 z m 321 471 l 321 615 l 426 615 b 504 543 489 615 504 569 b 431 471 504 522 489 471 z "},"q":{"ha":964,"x_min":0,"x_max":0,"o":"m 475 822 b 83 410 174 822 83 574 b 475 -10 83 240 174 -10 b 550 -3 500 -10 528 -7 l 664 -135 l 904 -135 l 908 -124 l 733 78 b 869 410 833 167 869 303 b 475 822 869 574 779 822 z m 475 190 b 292 410 315 190 292 357 b 475 622 292 463 315 622 b 657 410 635 622 657 463 b 475 190 657 357 635 190 z "},"r":{"ha":824,"x_min":0,"x_max":0,"o":"m 321 272 l 382 272 l 510 0 l 740 0 l 590 319 b 713 543 661 367 713 444 b 419 811 713 654 646 811 l 111 811 l 111 0 l 321 0 z m 321 471 l 321 615 l 426 615 b 504 543 489 615 504 569 b 431 471 504 522 489 471 z "},"s":{"ha":785,"x_min":0,"x_max":0,"o":"m 601 551 l 681 735 b 375 821 529 804 421 821 b 106 576 218 821 106 732 b 489 236 106 293 486 325 b 411 188 490 203 456 186 b 172 257 342 190 242 224 l 83 85 b 403 -10 196 21 290 -10 b 701 242 581 -10 701 111 b 318 581 701 524 318 472 b 367 624 321 607 339 624 b 601 551 429 624 547 574 z "},"t":{"ha":722,"x_min":0,"x_max":0,"o":"m 253 0 l 464 0 l 464 614 l 667 614 l 667 811 l 56 811 l 56 614 l 253 614 z "},"u":{"ha":813,"x_min":0,"x_max":0,"o":"m 406 189 b 294 315 317 189 294 281 l 294 811 l 83 811 l 83 315 b 406 -8 83 179 168 -8 b 729 315 646 -8 729 179 l 729 811 l 517 811 l 517 315 b 406 189 517 281 494 189 z "},"v":{"ha":869,"x_min":0,"x_max":0,"o":"m 271 811 l 42 811 l 428 -6 l 442 -6 l 828 811 l 599 811 l 433 426 z "},"w":{"ha":1325,"x_min":0,"x_max":0,"o":"m 656 821 l 446 436 l 274 811 l 42 811 l 433 -7 l 449 -7 l 663 407 l 876 -7 l 892 -7 l 1283 811 l 1051 811 l 879 436 l 669 821 z "},"x":{"ha":822,"x_min":0,"x_max":0,"o":"m 781 811 l 539 811 l 411 593 l 283 811 l 42 811 l 296 406 l 42 0 l 283 0 l 411 218 l 539 0 l 781 0 l 526 406 z "},"y":{"ha":846,"x_min":0,"x_max":0,"o":"m 528 353 l 804 811 l 564 811 l 421 568 l 282 811 l 42 811 l 318 351 l 318 0 l 528 0 z "},"z":{"ha":832,"x_min":0,"x_max":0,"o":"m 419 199 l 776 796 l 769 811 l 114 811 l 114 615 l 415 615 l 56 15 l 61 0 l 726 0 l 726 199 z "},"f":{"ha":756,"x_min":0,"x_max":0,"o":"m 594 308 l 594 507 l 321 507 l 321 614 l 672 614 l 672 811 l 111 811 l 111 0 l 321 0 l 321 308 z "},"Ÿ":{"ha":968,"x_min":0,"x_max":0,"o":"m 594 432 l 926 972 l 679 972 l 483 646 l 288 972 l 42 972 l 374 429 l 374 0 l 594 0 z m 208 1207 b 321 1096 208 1143 257 1096 b 432 1207 383 1096 432 1143 b 321 1319 432 1269 383 1319 b 208 1207 257 1319 208 1269 z m 536 1207 b 649 1096 536 1143 585 1096 b 760 1207 711 1096 760 1143 b 649 1319 760 1269 711 1319 b 536 1207 585 1319 536 1269 z "},"¡":{"ha":492,"x_min":0,"x_max":0,"o":"m 350 106 l 325 389 l 164 389 l 139 106 l 139 -278 l 350 -278 z m 140 603 b 247 496 140 543 186 496 b 353 603 307 496 353 543 b 247 708 353 664 307 708 b 140 603 186 708 140 664 z "},"¢":{"ha":782,"x_min":0,"x_max":0,"o":"m 513 -121 l 513 0 b 707 118 586 17 649 58 l 582 268 b 513 217 558 244 535 228 l 513 489 b 594 432 542 476 569 457 l 719 569 b 513 697 660 633 593 679 l 513 808 l 363 808 l 363 700 b 83 344 143 665 83 476 b 363 -3 83 213 153 31 l 363 -121 z m 297 349 b 363 488 297 397 315 457 l 363 215 b 297 349 324 240 297 285 z "},"£":{"ha":981,"x_min":0,"x_max":0,"o":"m 694 926 b 483 983 614 965 539 983 b 229 742 343 983 229 906 l 229 693 l 160 693 l 160 506 l 229 506 l 229 242 b 56 96 161 214 99 174 l 183 -21 b 349 69 243 57 326 69 b 590 -3 433 69 503 -4 b 897 185 732 0 826 57 l 761 288 b 592 193 719 225 658 192 b 440 240 540 193 490 235 l 440 506 l 564 506 l 564 693 l 440 693 l 440 738 b 494 790 440 775 467 790 b 631 760 524 790 581 781 z "},"¤":{"ha":922,"x_min":0,"x_max":0,"o":"m 461 688 b 318 654 404 688 358 675 l 189 785 l 85 679 l 214 549 b 179 396 188 497 179 442 b 210 256 179 354 186 303 l 83 133 l 188 29 l 304 144 b 461 104 343 121 396 104 b 618 146 524 104 578 122 l 735 29 l 839 132 l 715 256 b 743 396 736 301 743 354 b 707 547 743 442 735 496 l 839 679 l 735 785 l 607 651 b 461 688 568 674 518 688 z m 461 307 b 388 396 397 307 388 374 b 461 486 388 418 397 486 b 533 396 524 486 533 418 b 461 307 533 374 524 307 z "},"¥":{"ha":968,"x_min":0,"x_max":0,"o":"m 726 83 l 726 226 l 594 226 l 594 319 l 726 319 l 726 463 l 613 463 l 926 972 l 679 972 l 483 646 l 288 972 l 42 972 l 353 463 l 240 463 l 240 319 l 374 319 l 374 226 l 240 226 l 240 83 l 374 83 l 374 0 l 594 0 l 594 83 z "},"¦":{"ha":318,"x_min":0,"x_max":0,"o":"m 235 261 l 83 261 l 83 -276 l 235 -276 z m 235 1075 l 83 1075 l 83 539 l 235 539 z "},"§":{"ha":854,"x_min":0,"x_max":0,"o":"m 111 -147 b 444 -293 176 -208 296 -293 b 731 -35 599 -293 731 -193 b 660 149 731 43 693 108 b 743 328 696 188 743 257 b 472 625 743 469 604 560 b 358 732 411 656 361 694 b 425 792 363 772 390 792 b 628 715 494 792 596 733 l 735 872 b 442 985 665 922 556 985 b 151 728 240 985 151 843 b 221 556 151 654 192 583 b 142 385 188 521 142 457 b 368 101 142 250 244 160 b 513 -29 454 57 513 13 b 426 -97 513 -74 468 -97 b 225 -1 371 -97 285 -44 z m 343 396 b 367 442 343 414 353 428 b 531 322 417 408 529 371 b 501 260 528 293 513 274 b 343 396 444 286 343 322 z "},"¨":{"ha":808,"x_min":0,"x_max":0,"o":"m 126 929 b 239 818 126 865 175 818 b 350 929 301 818 350 865 b 239 1042 350 992 301 1042 b 126 929 175 1042 126 992 z m 454 929 b 567 818 454 865 503 818 b 678 929 629 818 678 865 b 567 1042 678 992 629 1042 b 454 929 503 1042 454 992 z "},"©":{"ha":814,"x_min":0,"x_max":0,"o":"m 326 625 b 413 528 326 564 367 528 b 506 571 440 528 476 540 l 568 507 b 413 425 526 458 482 425 b 213 625 264 425 213 542 b 413 824 213 704 264 824 b 568 742 482 824 526 792 l 504 675 b 413 722 474 710 440 722 b 326 625 367 722 326 685 z m 407 979 b 56 631 208 979 56 810 b 407 276 56 426 228 276 b 758 628 601 276 758 433 b 407 979 758 822 601 979 z m 407 378 b 156 628 267 378 156 488 b 407 879 156 768 267 879 b 657 628 547 879 657 768 b 407 378 657 488 547 378 z "},"ª":{"ha":568,"x_min":0,"x_max":0,"o":"m 264 983 b 79 926 208 982 147 963 l 132 806 b 267 844 169 821 224 844 b 326 782 300 844 326 829 b 258 789 300 788 279 789 b 56 613 157 789 56 746 b 238 444 56 551 85 444 b 364 490 283 444 333 461 l 381 454 l 485 454 l 485 761 b 289 985 485 868 471 985 z m 326 617 b 256 586 314 600 286 586 b 208 619 231 586 208 597 b 276 665 208 657 243 665 b 326 657 293 665 311 661 z "},"«":{"ha":829,"x_min":0,"x_max":0,"o":"m 260 356 l 415 549 l 304 644 l 42 364 l 42 346 l 304 64 l 415 160 z m 632 356 l 788 549 l 676 644 l 414 364 l 414 346 l 676 64 l 788 160 z "},"¬":{"ha":871,"x_min":0,"x_max":0,"o":"m 760 583 l 111 583 l 111 296 l 453 296 l 453 119 l 760 119 z "},"­":{"ha":558,"x_min":0,"x_max":0,"o":"m 83 369 l 83 208 l 475 208 l 475 369 z "},"®":{"ha":814,"x_min":0,"x_max":0,"o":"m 372 561 l 394 561 l 449 460 l 560 460 l 490 583 b 547 685 521 604 547 646 b 417 807 547 733 517 807 l 278 807 l 278 460 l 372 460 z m 372 654 l 372 717 l 418 717 b 451 685 446 717 451 694 b 421 654 451 675 446 656 z m 407 979 b 56 631 208 979 56 810 b 407 276 56 426 228 276 b 758 628 601 276 758 433 b 407 979 758 822 601 979 z m 407 378 b 156 628 267 378 156 488 b 407 879 156 768 267 879 b 657 628 547 879 657 768 b 407 378 657 488 547 378 z "},"¯":{"ha":717,"x_min":0,"x_max":0,"o":"m 157 979 l 157 829 l 575 829 l 575 979 z "},"°":{"ha":458,"x_min":0,"x_max":0,"o":"m 229 611 b 417 799 332 611 417 694 b 229 986 417 907 332 986 b 42 799 125 986 42 903 b 229 611 42 694 125 611 z m 229 732 b 161 799 193 732 161 758 b 229 863 161 832 193 863 b 293 799 263 863 293 836 b 229 732 293 758 263 732 z "},"±":{"ha":768,"x_min":0,"x_max":0,"o":"m 111 160 l 111 1 l 657 1 l 657 160 z m 304 253 l 471 253 l 471 388 l 664 388 l 664 553 l 471 553 l 471 746 l 304 746 l 304 553 l 111 553 l 111 388 l 304 388 z "},"²":{"ha":424,"x_min":0,"x_max":0,"o":"m 117 951 b 211 1004 163 993 185 1004 b 244 972 232 1004 244 986 b 219 913 244 963 242 946 l 49 667 l 53 656 l 361 656 l 361 764 l 254 764 l 313 843 b 368 974 344 886 368 933 b 217 1118 368 1050 314 1118 b 42 1024 157 1118 99 1093 z "},"³":{"ha":392,"x_min":0,"x_max":0,"o":"m 350 972 b 189 1117 350 1024 319 1117 b 31 1046 117 1117 64 1079 l 96 971 b 189 1010 122 993 165 1010 b 238 972 214 1010 238 996 b 189 928 238 943 214 928 l 113 928 l 113 835 l 189 835 b 238 792 214 835 238 821 b 189 754 238 769 214 754 b 96 790 163 754 126 761 l 28 715 b 189 647 64 682 115 647 b 350 792 319 647 350 743 b 307 881 350 822 339 856 b 350 972 335 904 350 944 z "},"´":{"ha":708,"x_min":0,"x_max":0,"o":"m 190 929 l 268 815 l 518 971 l 421 1108 z "},"¶":{"ha":1019,"x_min":0,"x_max":0,"o":"m 56 682 b 332 390 56 564 119 393 l 332 -276 l 513 -276 l 513 824 l 635 824 l 635 -276 l 815 -276 l 815 824 l 908 824 l 908 974 l 339 974 b 56 682 119 974 56 801 z "},"·":{"ha":408,"x_min":0,"x_max":0,"o":"m 83 415 b 203 293 83 347 133 293 b 325 415 271 293 325 347 b 203 535 325 485 271 535 b 83 415 133 535 83 485 z "},"¸":{"ha":769,"x_min":0,"x_max":0,"o":"m 453 -125 b 518 -165 508 -125 519 -150 b 471 -201 517 -189 497 -201 b 375 -181 438 -201 389 -185 l 338 -283 b 485 -318 381 -303 440 -318 b 650 -165 569 -318 650 -269 b 514 -39 650 -117 615 -42 l 514 32 l 400 32 l 400 -107 l 418 -125 z "},"¹":{"ha":317,"x_min":0,"x_max":0,"o":"m 254 1110 l 193 1110 l 28 992 l 75 914 l 132 944 l 132 656 l 254 656 z "},"º":{"ha":525,"x_min":0,"x_max":0,"o":"m 263 981 b 56 765 103 981 56 853 b 263 550 56 675 103 550 b 469 765 422 550 469 675 b 263 981 469 853 422 981 z m 263 696 b 203 765 210 696 203 747 b 263 833 203 782 210 833 b 322 765 315 833 322 782 b 263 696 322 747 315 696 z m 82 447 l 82 301 l 442 301 l 442 447 z "},"»":{"ha":829,"x_min":0,"x_max":0,"o":"m 414 160 l 525 64 l 788 346 l 788 364 l 525 644 l 414 549 l 569 356 z m 42 160 l 153 64 l 415 346 l 415 364 l 153 644 l 42 549 l 197 356 z "},"¼":{"ha":822,"x_min":0,"x_max":0,"o":"m 711 972 l 571 972 l 85 0 l 226 0 z m 254 976 l 193 976 l 28 858 l 75 781 l 132 811 l 132 522 l 254 522 z m 708 67 l 772 67 l 772 169 l 708 169 l 708 457 l 614 457 l 410 158 l 410 67 l 593 67 l 593 1 l 708 1 z m 593 254 l 593 169 l 535 169 z "},"½":{"ha":888,"x_min":0,"x_max":0,"o":"m 711 972 l 571 972 l 85 0 l 226 0 z m 254 976 l 193 976 l 28 858 l 75 781 l 132 811 l 132 522 l 254 522 z m 578 296 b 672 349 624 338 646 349 b 706 317 693 349 706 331 b 681 257 706 307 703 289 l 510 11 l 514 0 l 822 0 l 822 108 l 717 108 l 774 188 b 829 318 806 231 829 278 b 678 463 829 394 775 463 b 503 368 618 463 560 438 z "},"¾":{"ha":879,"x_min":0,"x_max":0,"o":"m 763 972 l 622 972 l 136 0 l 278 0 z m 760 67 l 824 67 l 824 169 l 760 169 l 760 457 l 665 457 l 461 158 l 461 67 l 644 67 l 644 0 l 760 0 z m 644 254 l 644 169 l 586 169 z m 350 838 b 189 982 350 889 319 982 b 31 911 117 982 64 944 l 96 836 b 189 875 122 858 165 875 b 238 838 214 875 238 861 b 189 793 238 808 214 793 l 113 793 l 113 700 l 189 700 b 238 657 214 700 238 686 b 189 619 238 635 214 619 b 96 656 163 619 126 626 l 28 581 b 189 513 64 547 115 513 b 350 657 319 513 350 608 b 307 746 350 688 339 721 b 350 838 335 769 350 810 z "},"¿":{"ha":806,"x_min":0,"x_max":0,"o":"m 292 279 b 111 -56 292 226 111 110 b 372 -304 111 -217 222 -304 b 694 -128 497 -304 589 -260 l 567 -8 b 386 -115 485 -89 449 -115 b 325 -54 333 -115 325 -72 b 492 276 325 68 492 119 l 492 392 l 292 392 z m 506 583 b 389 700 506 656 456 700 b 272 583 325 700 272 650 b 389 468 272 518 325 468 b 506 583 456 468 506 518 z "},"À":{"ha":1025,"x_min":0,"x_max":0,"o":"m 522 981 l 503 981 l 42 0 l 290 0 l 375 203 l 650 203 l 735 0 l 983 0 z m 513 533 l 576 378 l 447 378 z m 446 1385 l 349 1247 l 599 1092 l 676 1206 z "},"Á":{"ha":1025,"x_min":0,"x_max":0,"o":"m 522 981 l 503 981 l 42 0 l 290 0 l 375 203 l 650 203 l 735 0 l 983 0 z m 513 533 l 576 378 l 447 378 z m 349 1207 l 426 1093 l 676 1249 l 579 1386 z "},"Â":{"ha":1025,"x_min":0,"x_max":0,"o":"m 522 981 l 503 981 l 42 0 l 290 0 l 375 203 l 650 203 l 735 0 l 983 0 z m 513 533 l 576 378 l 447 378 z m 513 1385 l 282 1206 l 360 1092 l 513 1186 l 665 1092 l 743 1206 z "},"Ã":{"ha":1025,"x_min":0,"x_max":0,"o":"m 522 981 l 503 981 l 42 0 l 290 0 l 375 203 l 650 203 l 735 0 l 983 0 z m 513 533 l 576 378 l 447 378 z m 358 1094 b 433 1144 388 1144 425 1144 b 581 1097 488 1144 524 1097 b 761 1238 638 1097 713 1132 l 649 1307 b 578 1257 617 1256 589 1257 b 424 1303 521 1257 481 1303 b 246 1164 367 1303 294 1269 z "},"Ä":{"ha":1025,"x_min":0,"x_max":0,"o":"m 522 981 l 503 981 l 42 0 l 290 0 l 375 203 l 650 203 l 735 0 l 983 0 z m 513 533 l 576 378 l 447 378 z m 236 1207 b 349 1096 236 1143 285 1096 b 460 1207 411 1096 460 1143 b 349 1319 460 1269 411 1319 b 236 1207 285 1319 236 1269 z m 564 1207 b 676 1096 564 1143 613 1096 b 788 1207 739 1096 788 1143 b 676 1319 788 1269 739 1319 b 564 1207 613 1319 564 1269 z "},"Å":{"ha":1025,"x_min":0,"x_max":0,"o":"m 522 981 l 503 981 l 42 0 l 290 0 l 375 203 l 650 203 l 735 0 l 983 0 z m 513 533 l 576 378 l 447 378 z m 365 1233 b 513 1088 365 1153 432 1088 b 658 1233 593 1088 658 1153 b 513 1381 658 1314 593 1381 b 365 1233 432 1381 365 1314 z m 471 1233 b 513 1275 471 1256 490 1275 b 553 1233 533 1275 553 1256 b 513 1193 553 1213 533 1193 b 471 1233 490 1193 471 1213 z "},"Æ":{"ha":1268,"x_min":0,"x_max":0,"o":"m 1086 376 l 1086 583 l 735 583 l 735 765 l 1185 765 l 1185 972 l 499 972 l 42 0 l 290 0 l 375 203 l 513 203 l 513 0 l 1185 0 l 1185 207 l 735 207 l 735 376 z m 513 533 l 513 378 l 447 378 z "},"Ç":{"ha":1040,"x_min":0,"x_max":0,"o":"m 536 -125 b 601 -165 592 -125 603 -150 b 554 -201 600 -189 581 -201 b 458 -181 521 -201 472 -185 l 421 -283 b 568 -318 464 -303 524 -318 b 733 -165 653 -318 733 -269 b 597 -39 733 -117 699 -42 l 597 -11 b 950 163 738 -3 851 64 l 822 315 b 568 200 756 254 654 200 b 310 488 342 200 310 415 b 567 776 310 560 342 776 b 808 649 649 776 753 715 l 957 792 b 567 986 853 910 733 986 b 83 488 197 986 83 690 b 483 -7 83 296 179 33 l 483 -107 l 501 -125 z "},"È":{"ha":894,"x_min":0,"x_max":0,"o":"m 713 376 l 713 583 l 361 583 l 361 765 l 811 765 l 811 972 l 139 972 l 139 0 l 811 0 l 811 207 l 361 207 l 361 376 z m 381 1385 l 283 1247 l 533 1092 l 611 1206 z "},"É":{"ha":894,"x_min":0,"x_max":0,"o":"m 713 376 l 713 583 l 361 583 l 361 765 l 811 765 l 811 972 l 139 972 l 139 0 l 811 0 l 811 207 l 361 207 l 361 376 z m 283 1207 l 361 1093 l 611 1249 l 514 1386 z "},"Ê":{"ha":894,"x_min":0,"x_max":0,"o":"m 713 376 l 713 583 l 361 583 l 361 765 l 811 765 l 811 972 l 139 972 l 139 0 l 811 0 l 811 207 l 361 207 l 361 376 z m 447 1385 l 217 1206 l 294 1092 l 447 1186 l 600 1092 l 678 1206 z "},"Ë":{"ha":894,"x_min":0,"x_max":0,"o":"m 713 376 l 713 583 l 361 583 l 361 765 l 811 765 l 811 972 l 139 972 l 139 0 l 811 0 l 811 207 l 361 207 l 361 376 z m 189 1207 b 301 1096 189 1143 238 1096 b 413 1207 364 1096 413 1143 b 301 1319 413 1269 364 1319 b 189 1207 238 1319 189 1269 z m 517 1207 b 629 1096 517 1143 565 1096 b 740 1207 692 1096 740 1143 b 629 1319 740 1269 692 1319 b 517 1207 565 1319 517 1269 z "},"Ì":{"ha":383,"x_min":0,"x_max":0,"o":"m 303 972 l 81 972 l 81 0 l 303 0 z m 125 1385 l 28 1247 l 278 1092 l 356 1206 z "},"Í":{"ha":383,"x_min":0,"x_max":0,"o":"m 303 972 l 81 972 l 81 0 l 303 0 z m 28 1207 l 106 1093 l 356 1249 l 258 1386 z "},"Î":{"ha":461,"x_min":0,"x_max":0,"o":"m 342 972 l 119 972 l 119 0 l 342 0 z m 231 1385 l 0 1206 l 78 1092 l 231 1186 l 383 1092 l 461 1206 z "},"Ï":{"ha":551,"x_min":0,"x_max":0,"o":"m 388 972 l 165 972 l 165 0 l 388 0 z m 0 1207 b 113 1096 0 1143 49 1096 b 224 1207 175 1096 224 1143 b 113 1319 224 1269 175 1319 b 0 1207 49 1319 0 1269 z m 328 1207 b 440 1096 328 1143 376 1096 b 551 1207 503 1096 551 1143 b 440 1319 551 1269 503 1319 b 328 1207 376 1319 328 1269 z "},"Ð":{"ha":1054,"x_min":0,"x_max":0,"o":"m 74 575 l 74 407 l 139 407 l 139 0 l 489 0 b 971 488 858 0 971 279 b 489 972 971 690 858 972 l 139 972 l 139 575 z m 360 207 l 360 407 l 521 407 l 521 575 l 360 575 l 360 767 l 489 767 b 746 488 714 767 746 560 b 489 207 746 415 714 207 z "},"Ñ":{"ha":1083,"x_min":0,"x_max":0,"o":"m 139 981 l 139 0 l 363 0 l 363 500 l 928 -8 l 944 -3 l 944 972 l 722 972 l 722 481 l 156 985 z m 396 1094 b 471 1144 425 1144 463 1144 b 618 1097 525 1144 561 1097 b 799 1238 675 1097 750 1132 l 686 1307 b 615 1257 654 1256 626 1257 b 461 1303 558 1257 518 1303 b 283 1164 404 1303 332 1269 z "},"Ò":{"ha":1132,"x_min":0,"x_max":0,"o":"m 567 989 b 83 488 197 989 83 690 b 567 -15 83 279 197 -15 b 1049 488 935 -15 1049 279 b 567 989 1049 690 935 989 z m 567 193 b 310 488 342 193 310 415 b 567 779 310 560 342 779 b 822 488 790 779 822 560 b 567 193 822 415 790 193 z m 499 1385 l 401 1247 l 651 1092 l 729 1206 z "},"Ó":{"ha":1132,"x_min":0,"x_max":0,"o":"m 567 989 b 83 488 197 989 83 690 b 567 -15 83 279 197 -15 b 1049 488 935 -15 1049 279 b 567 989 1049 690 935 989 z m 567 193 b 310 488 342 193 310 415 b 567 779 310 560 342 779 b 822 488 790 779 822 560 b 567 193 822 415 790 193 z m 401 1207 l 479 1093 l 729 1249 l 632 1386 z "},"Ô":{"ha":1132,"x_min":0,"x_max":0,"o":"m 567 989 b 83 488 197 989 83 690 b 567 -15 83 279 197 -15 b 1049 488 935 -15 1049 279 b 567 989 1049 690 935 989 z m 567 193 b 310 488 342 193 310 415 b 567 779 310 560 342 779 b 822 488 790 779 822 560 b 567 193 822 415 790 193 z m 565 1385 l 335 1206 l 413 1092 l 565 1186 l 718 1092 l 796 1206 z "},"Õ":{"ha":1132,"x_min":0,"x_max":0,"o":"m 567 989 b 83 488 197 989 83 690 b 567 -15 83 279 197 -15 b 1049 488 935 -15 1049 279 b 567 989 1049 690 935 989 z m 567 193 b 310 488 342 193 310 415 b 567 779 310 560 342 779 b 822 488 790 779 822 560 b 567 193 822 415 790 193 z m 413 1094 b 488 1144 442 1144 479 1144 b 635 1097 542 1144 578 1097 b 815 1238 692 1097 767 1132 l 703 1307 b 632 1257 671 1256 643 1257 b 478 1303 575 1257 535 1303 b 300 1164 421 1303 349 1269 z "},"Ö":{"ha":1132,"x_min":0,"x_max":0,"o":"m 567 989 b 83 488 197 989 83 690 b 567 -15 83 279 197 -15 b 1049 488 935 -15 1049 279 b 567 989 1049 690 935 989 z m 567 193 b 310 488 342 193 310 415 b 567 779 310 560 342 779 b 822 488 790 779 822 560 b 567 193 822 415 790 193 z m 290 1207 b 403 1096 290 1143 339 1096 b 514 1207 465 1096 514 1143 b 403 1319 514 1269 465 1319 b 290 1207 339 1319 290 1269 z m 618 1207 b 731 1096 618 1143 667 1096 b 842 1207 793 1096 842 1143 b 731 1319 842 1269 793 1319 b 618 1207 667 1319 618 1269 z "},"×":{"ha":786,"x_min":0,"x_max":0,"o":"m 529 32 l 647 150 l 510 286 l 647 422 l 531 539 l 393 403 l 257 539 l 139 421 l 276 285 l 139 149 l 256 32 l 393 168 z "},"Ø":{"ha":1132,"x_min":0,"x_max":0,"o":"m 225 -12 l 288 61 b 567 -15 357 14 449 -15 b 1049 488 935 -15 1049 279 b 932 832 1049 594 1017 729 l 997 910 l 882 1006 l 817 928 b 567 989 751 965 668 989 b 83 488 197 989 83 690 b 179 167 83 386 110 265 l 110 83 z m 567 193 b 429 231 508 193 464 207 l 782 653 b 822 488 815 590 822 522 b 567 193 822 415 790 193 z m 310 488 b 567 779 310 560 342 779 b 674 757 608 779 644 771 l 335 353 b 310 488 314 406 310 458 z "},"Ù":{"ha":1028,"x_min":0,"x_max":0,"o":"m 514 196 b 347 382 382 196 347 331 l 347 972 l 125 972 l 125 382 b 514 -10 125 217 225 -10 b 903 382 803 -10 903 217 l 903 972 l 679 972 l 679 382 b 514 196 679 331 646 196 z m 447 1385 l 350 1247 l 600 1092 l 678 1206 z "},"Ú":{"ha":1028,"x_min":0,"x_max":0,"o":"m 514 196 b 347 382 382 196 347 331 l 347 972 l 125 972 l 125 382 b 514 -10 125 217 225 -10 b 903 382 803 -10 903 217 l 903 972 l 679 972 l 679 382 b 514 196 679 331 646 196 z m 350 1207 l 428 1093 l 678 1249 l 581 1386 z "},"Û":{"ha":1028,"x_min":0,"x_max":0,"o":"m 514 196 b 347 382 382 196 347 331 l 347 972 l 125 972 l 125 382 b 514 -10 125 217 225 -10 b 903 382 803 -10 903 217 l 903 972 l 679 972 l 679 382 b 514 196 679 331 646 196 z m 514 1385 l 283 1206 l 361 1092 l 514 1186 l 667 1092 l 744 1206 z "},"Ü":{"ha":1028,"x_min":0,"x_max":0,"o":"m 514 196 b 347 382 382 196 347 331 l 347 972 l 125 972 l 125 382 b 514 -10 125 217 225 -10 b 903 382 803 -10 903 217 l 903 972 l 679 972 l 679 382 b 514 196 679 331 646 196 z m 238 1207 b 350 1096 238 1143 286 1096 b 461 1207 413 1096 461 1143 b 350 1319 461 1269 413 1319 b 238 1207 286 1319 238 1269 z m 565 1207 b 678 1096 565 1143 614 1096 b 789 1207 740 1096 789 1143 b 678 1319 789 1269 740 1319 b 565 1207 614 1319 565 1269 z "},"Ý":{"ha":968,"x_min":0,"x_max":0,"o":"m 594 432 l 926 972 l 679 972 l 483 646 l 288 972 l 42 972 l 374 429 l 374 0 l 594 0 z m 319 1207 l 397 1093 l 647 1249 l 550 1386 z "},"Þ":{"ha":919,"x_min":0,"x_max":0,"o":"m 476 111 b 836 482 753 111 836 332 b 476 853 836 632 753 853 l 357 853 l 357 972 l 139 972 l 139 0 l 357 0 l 357 111 z m 357 656 l 467 656 b 618 482 593 656 618 533 b 467 310 618 432 593 310 l 357 310 z "},"ß":{"ha":939,"x_min":0,"x_max":0,"o":"m 800 260 b 685 493 800 406 685 461 b 767 697 685 524 767 572 b 449 983 767 793 708 983 b 139 678 429 983 139 982 l 139 -56 l 357 -56 l 357 681 b 463 783 358 768 426 783 b 560 696 563 783 560 700 b 457 492 560 624 457 578 b 579 264 457 406 572 343 b 428 151 578 218 549 154 l 428 -19 b 800 260 681 -17 800 96 z "},"÷":{"ha":650,"x_min":0,"x_max":0,"o":"m 83 422 l 83 271 l 567 271 l 567 422 z m 218 592 b 325 485 218 529 264 485 b 431 592 385 485 431 529 b 325 697 431 651 385 697 b 218 592 264 697 218 651 z m 218 106 b 325 0 218 43 264 0 b 431 106 385 0 431 43 b 325 213 431 165 385 213 b 218 106 264 213 218 165 z "},"þ":{"ha":854,"x_min":0,"x_max":0,"o":"m 425 47 b 771 406 692 47 771 260 b 425 764 771 551 692 764 b 322 750 389 764 354 758 l 322 811 l 111 811 l 111 1 l 322 1 l 322 61 b 425 47 354 53 389 47 z m 322 549 b 414 571 351 567 382 571 b 561 406 538 571 561 453 b 414 240 561 358 538 240 b 322 263 382 240 351 244 z "},"#":{"ha":800,"x_min":0,"x_max":0,"o":"m 83 554 l 83 389 l 192 389 l 192 306 l 83 306 l 83 142 l 192 142 l 192 0 l 358 0 l 358 142 l 442 142 l 442 0 l 608 0 l 608 142 l 717 142 l 717 306 l 608 306 l 608 389 l 717 389 l 717 554 l 608 554 l 608 694 l 442 694 l 442 554 l 358 554 l 358 694 l 192 694 l 192 554 z m 358 389 l 442 389 l 442 306 l 358 306 z "},"!":{"ha":511,"x_min":0,"x_max":0,"o":"m 363 975 l 151 975 l 151 592 l 176 308 l 338 308 l 363 592 z m 153 94 b 260 -11 153 33 199 -11 b 365 94 319 -11 365 33 b 260 201 365 154 319 201 b 153 94 199 201 153 154 z "},"\"":{"ha":614,"x_min":0,"x_max":0,"o":"m 558 975 l 356 975 l 389 621 l 525 621 z m 258 975 l 56 975 l 89 621 l 225 621 z "},"ˇ":{"ha":694,"x_min":0,"x_max":0,"o":"m 596 993 l 518 1107 l 365 1013 l 213 1107 l 135 993 l 365 814 z "},"˘":{"ha":717,"x_min":0,"x_max":0,"o":"m 435 1051 b 365 975 422 993 390 975 b 294 1050 338 975 307 988 l 144 1007 b 365 817 176 872 267 817 b 588 1006 463 817 554 874 z "},"˚":{"ha":726,"x_min":0,"x_max":0,"o":"m 217 956 b 364 810 217 875 283 810 b 510 956 444 810 510 875 b 364 1103 510 1036 444 1103 b 217 956 283 1103 217 1036 z m 322 956 b 364 997 322 978 342 997 b 404 956 385 997 404 978 b 364 915 404 935 385 915 b 322 956 342 915 322 935 z "},"⁄":{"ha":93,"x_min":0,"x_max":0,"o":"m 363 972 l 222 972 l -264 0 l -122 0 z "},"˛":{"ha":849,"x_min":0,"x_max":0,"o":"m 372 36 l 372 0 b 311 -162 372 -32 311 -89 b 475 -311 311 -264 389 -311 b 649 -281 519 -311 597 -303 l 649 -156 b 535 -178 619 -167 569 -178 b 468 -129 494 -178 468 -161 b 511 -4 468 -76 511 -37 l 511 36 z "},"˙":{"ha":804,"x_min":0,"x_max":0,"o":"m 282 928 b 394 817 282 864 331 817 b 506 928 457 817 506 864 b 394 1040 506 990 457 1040 b 282 928 331 1040 282 990 z "},"−":{"ha":774,"x_min":0,"x_max":0,"o":"m 104 594 l 104 460 l 679 460 l 679 594 z "},"≠":{"ha":708,"x_min":0,"x_max":0,"o":"m 597 404 l 597 569 l 514 569 l 556 694 l 389 694 l 349 569 l 111 569 l 111 404 l 294 404 l 256 283 l 111 283 l 111 117 l 203 117 l 165 0 l 329 0 l 367 117 l 597 117 l 597 283 l 421 283 l 461 404 z "},"∞":{"ha":931,"x_min":0,"x_max":0,"o":"m 311 199 b 467 275 375 199 431 229 b 619 199 503 231 560 199 b 819 408 764 199 819 307 b 619 621 819 510 764 621 b 467 540 557 621 501 588 b 311 621 429 586 372 621 b 111 410 168 621 111 510 b 311 199 111 307 168 199 z m 608 350 b 546 408 581 350 560 375 b 608 463 560 440 581 463 b 661 408 640 463 661 438 b 608 350 661 376 640 350 z m 324 350 b 271 410 292 350 271 372 b 324 464 271 443 292 464 b 385 410 353 464 372 440 b 324 350 371 375 351 350 z "},"∂":{"ha":815,"x_min":0,"x_max":0,"o":"m 211 829 b 432 617 290 778 364 732 b 382 621 417 619 403 621 b 83 303 138 607 83 426 b 407 -8 83 206 143 -8 b 732 314 672 -8 732 217 b 319 988 732 646 510 885 z m 407 188 b 290 308 331 188 290 247 b 407 428 290 368 328 428 b 525 308 485 428 522 371 b 407 188 525 247 485 188 z "},"∑":{"ha":753,"x_min":0,"x_max":0,"o":"m 403 778 l 711 778 l 711 972 l 50 972 l 47 961 l 351 486 l 42 4 l 44 0 l 711 0 l 711 194 l 403 194 l 593 486 z "},"≤":{"ha":626,"x_min":0,"x_max":0,"o":"m 42 182 l 42 0 l 536 0 l 536 182 z m 343 553 l 585 706 l 494 865 l 42 592 l 42 514 l 494 239 l 585 400 z "},"≥":{"ha":626,"x_min":0,"x_max":0,"o":"m 585 182 l 585 0 l 90 0 l 90 182 z m 42 400 l 132 239 l 585 514 l 585 592 l 132 865 l 42 706 l 283 553 z "},"≈":{"ha":903,"x_min":0,"x_max":0,"o":"m 231 410 b 353 496 288 485 325 496 b 432 465 375 496 406 479 b 576 415 472 440 519 415 b 819 597 663 415 751 472 l 699 685 b 578 593 646 615 607 593 b 486 626 546 593 515 610 b 358 671 449 647 410 671 b 111 493 282 671 189 632 z m 231 94 b 353 181 288 169 325 181 b 432 150 375 181 406 164 b 576 100 472 125 519 100 b 819 282 663 100 751 157 l 699 369 b 578 278 646 300 607 278 b 486 311 546 278 515 294 b 358 356 449 332 410 356 b 111 178 282 356 189 317 z "},"∏":{"ha":849,"x_min":0,"x_max":0,"o":"m 158 0 l 374 0 l 374 778 l 478 778 l 478 0 l 694 0 l 694 778 l 786 778 l 786 972 l 63 972 l 63 778 l 158 778 z "},"π":{"ha":911,"x_min":0,"x_max":0,"o":"m 639 -10 b 842 26 668 -10 742 -1 l 804 199 b 708 182 767 189 744 182 b 676 221 696 182 676 192 l 676 492 l 800 492 l 800 694 l 69 694 l 69 492 l 160 492 l 160 0 l 372 0 l 372 492 l 463 492 l 463 186 b 639 -10 463 135 479 -10 z "},"∫":{"ha":674,"x_min":0,"x_max":0,"o":"m 599 747 l 688 888 b 460 981 651 925 553 981 b 208 713 222 981 208 772 l 208 -6 b 150 -89 208 -68 183 -89 b 33 -44 119 -89 82 -75 l -56 -185 b 172 -278 -19 -222 79 -278 b 424 -10 410 -278 424 -69 l 424 708 b 482 792 424 771 449 792 b 599 747 513 792 550 778 z "},"◊":{"ha":922,"x_min":0,"x_max":0,"o":"m 83 478 l 461 -46 l 839 478 l 461 1007 z m 461 653 l 579 478 l 461 308 l 343 478 z "},"Δ":{"ha":1068,"x_min":0,"x_max":0,"o":"m 526 982 l 83 15 l 89 0 l 979 0 l 985 15 l 542 982 z m 397 207 l 535 543 l 672 207 z "},"Ω":{"ha":1178,"x_min":0,"x_max":0,"o":"m 589 983 b 108 485 218 983 108 688 b 200 207 108 397 133 290 l 83 207 l 83 0 l 507 0 l 507 186 b 333 485 357 264 333 428 b 589 775 333 557 365 775 b 844 485 811 775 844 557 b 671 186 844 428 821 264 l 671 0 l 1094 0 l 1094 207 l 978 207 b 1069 485 1044 290 1069 397 b 589 983 1069 688 960 983 z "},"√":{"ha":964,"x_min":0,"x_max":0,"o":"m 408 444 l 278 694 l 42 694 l 400 -7 l 419 -7 l 786 796 l 922 796 l 922 972 l 640 972 z "},"←":{"ha":882,"x_min":0,"x_max":0,"o":"m 799 263 l 799 453 l 426 453 l 574 615 l 446 742 l 83 369 l 83 346 l 449 -24 l 578 97 l 425 263 z "},"↑":{"ha":932,"x_min":0,"x_max":0,"o":"m 369 1 l 560 1 l 560 374 l 722 226 l 849 354 l 476 717 l 453 717 l 83 351 l 204 222 l 369 375 z "},"→":{"ha":882,"x_min":0,"x_max":0,"o":"m 457 263 l 304 97 l 433 -24 l 799 346 l 799 369 l 436 742 l 308 615 l 456 453 l 83 453 l 83 263 z "},"↓":{"ha":932,"x_min":0,"x_max":0,"o":"m 369 343 l 204 496 l 83 367 l 453 1 l 476 1 l 849 364 l 722 492 l 560 344 l 560 717 l 369 717 z "},"ℓ":{"ha":631,"x_min":0,"x_max":0,"o":"m 28 396 l 96 396 l 96 258 b 338 -14 96 181 114 -14 b 574 89 472 -14 556 71 l 474 244 b 350 185 407 197 371 185 b 310 272 314 185 310 238 l 310 400 b 589 724 464 425 589 553 b 332 990 589 858 508 990 b 96 736 249 990 96 949 l 96 588 l 28 588 z m 310 746 b 340 796 310 783 326 796 b 385 721 365 796 385 761 b 310 596 385 660 354 613 z "},"Ş":{"ha":892,"x_min":0,"x_max":0,"o":"m 426 -119 b 496 -165 478 -119 497 -142 b 444 -211 494 -189 471 -211 b 353 -187 411 -211 367 -194 l 311 -279 b 458 -317 349 -301 414 -317 b 621 -165 543 -317 621 -269 b 488 -39 621 -121 589 -42 l 488 -10 b 808 268 672 1 808 118 b 483 590 808 492 629 547 b 297 711 383 619 300 643 b 446 800 301 785 365 800 b 694 731 499 800 624 760 l 769 899 b 415 988 606 975 471 988 b 100 704 232 988 100 882 b 388 422 100 515 250 464 b 606 269 501 388 606 361 b 444 171 606 208 529 171 b 160 250 350 171 253 206 l 78 88 b 374 -7 174 36 265 3 l 374 -101 l 390 -119 z "},"œ":{"ha":1203,"x_min":0,"x_max":0,"o":"m 1042 308 l 1042 507 l 768 507 l 768 614 l 1119 614 l 1119 811 l 579 811 b 475 822 547 818 513 822 b 83 410 174 822 83 574 b 475 -10 83 240 174 -10 b 574 0 510 -10 543 -6 l 1119 0 l 1119 199 l 768 199 l 768 308 z m 475 190 b 292 410 315 190 292 357 b 475 622 292 463 315 622 b 558 603 508 622 535 615 l 558 210 b 475 190 535 197 508 190 z "},"ž":{"ha":832,"x_min":0,"x_max":0,"o":"m 410 199 l 776 794 l 769 811 l 114 811 l 114 615 l 417 615 l 56 15 l 61 0 l 726 0 l 726 199 z m 646 1114 l 568 1228 l 415 1133 l 263 1228 l 185 1114 l 415 935 z "},"Ž":{"ha":925,"x_min":0,"x_max":0,"o":"m 432 207 l 842 961 l 838 972 l 124 972 l 124 767 l 493 767 l 83 11 l 89 0 l 833 0 l 833 207 z m 693 1271 l 615 1385 l 463 1290 l 310 1385 l 232 1271 l 463 1092 z "},"š":{"ha":785,"x_min":0,"x_max":0,"o":"m 601 551 l 681 735 b 375 821 529 804 421 821 b 106 576 218 821 106 732 b 489 236 106 293 486 325 b 411 188 490 203 456 186 b 172 257 342 190 242 224 l 83 85 b 403 -10 196 21 290 -10 b 701 242 581 -10 701 111 b 318 581 701 524 318 472 b 367 624 321 607 339 624 b 601 551 429 624 547 574 z m 622 1108 l 544 1222 l 392 1128 l 239 1222 l 161 1108 l 392 929 z "},"æ":{"ha":1078,"x_min":0,"x_max":0,"o":"m 917 308 l 917 507 l 643 507 l 643 614 l 994 614 l 994 811 l 424 811 l 42 0 l 271 0 l 333 150 l 433 150 l 433 0 l 994 0 l 994 199 l 643 199 l 643 308 z m 433 385 l 433 279 l 389 279 z "},"à":{"ha":869,"x_min":0,"x_max":0,"o":"m 599 0 l 828 0 l 443 817 l 426 817 l 42 0 l 271 0 l 333 150 l 533 150 z m 433 385 l 478 279 l 389 279 z m 368 1231 l 271 1093 l 521 938 l 599 1051 z "},"á":{"ha":869,"x_min":0,"x_max":0,"o":"m 599 0 l 828 0 l 443 817 l 426 817 l 42 0 l 271 0 l 333 150 l 533 150 z m 433 385 l 478 279 l 389 279 z m 271 1047 l 349 933 l 599 1089 l 501 1226 z "},"â":{"ha":869,"x_min":0,"x_max":0,"o":"m 599 0 l 828 0 l 443 817 l 426 817 l 42 0 l 271 0 l 333 150 l 533 150 z m 433 385 l 478 279 l 389 279 z m 435 1224 l 204 1044 l 282 931 l 435 1025 l 588 931 l 665 1044 z "},"ã":{"ha":869,"x_min":0,"x_max":0,"o":"m 289 933 b 364 983 318 983 356 983 b 511 936 418 983 454 936 b 692 1076 568 936 643 971 l 579 1146 b 508 1096 547 1094 519 1096 b 354 1142 451 1096 411 1142 b 176 1003 297 1142 225 1108 z m 599 0 l 828 0 l 443 817 l 426 817 l 42 0 l 271 0 l 333 150 l 533 150 z m 433 385 l 478 279 l 389 279 z "},"ä":{"ha":869,"x_min":0,"x_max":0,"o":"m 158 1046 b 271 935 158 982 207 935 b 382 1046 333 935 382 982 b 271 1158 382 1108 333 1158 b 158 1046 207 1158 158 1108 z m 486 1046 b 599 935 486 982 535 935 b 710 1046 661 935 710 982 b 599 1158 710 1108 661 1158 b 486 1046 535 1158 486 1108 z m 599 0 l 828 0 l 443 817 l 426 817 l 42 0 l 271 0 l 333 150 l 533 150 z m 433 385 l 478 279 l 389 279 z "},"å":{"ha":869,"x_min":0,"x_max":0,"o":"m 599 0 l 828 0 l 443 817 l 426 817 l 42 0 l 271 0 l 333 150 l 533 150 z m 433 385 l 478 279 l 389 279 z m 288 1072 b 435 926 288 992 354 926 b 581 1072 515 926 581 992 b 435 1219 581 1153 515 1219 b 288 1072 354 1219 288 1153 z m 393 1072 b 435 1114 393 1094 413 1114 b 475 1072 456 1114 475 1094 b 435 1032 475 1051 456 1032 b 393 1072 413 1032 393 1051 z "},"ç":{"ha":863,"x_min":0,"x_max":0,"o":"m 807 658 b 476 824 713 760 613 824 b 83 410 175 824 83 574 b 403 -7 83 254 160 31 l 403 -107 l 421 -125 l 456 -125 b 521 -165 511 -125 522 -150 b 474 -201 519 -189 500 -201 b 378 -181 440 -201 392 -185 l 340 -283 b 488 -318 383 -303 443 -318 b 653 -165 572 -318 653 -269 b 517 -39 653 -117 618 -42 l 517 -10 b 804 140 628 0 721 57 l 681 290 b 478 192 619 238 542 192 b 293 410 318 192 293 363 b 464 621 293 542 379 621 b 665 517 526 621 601 588 z "},"è":{"ha":756,"x_min":0,"x_max":0,"o":"m 594 308 l 594 507 l 321 507 l 321 614 l 672 614 l 672 811 l 111 811 l 111 0 l 672 0 l 672 199 l 321 199 l 321 308 z m 311 1224 l 214 1086 l 464 931 l 542 1044 z "},"é":{"ha":756,"x_min":0,"x_max":0,"o":"m 594 308 l 594 507 l 321 507 l 321 614 l 672 614 l 672 811 l 111 811 l 111 0 l 672 0 l 672 199 l 321 199 l 321 308 z m 214 1046 l 292 932 l 542 1088 l 444 1225 z "},"ê":{"ha":756,"x_min":0,"x_max":0,"o":"m 594 308 l 594 507 l 321 507 l 321 614 l 672 614 l 672 811 l 111 811 l 111 0 l 672 0 l 672 199 l 321 199 l 321 308 z m 378 1224 l 147 1044 l 225 931 l 378 1025 l 531 931 l 608 1044 z "},"ë":{"ha":756,"x_min":0,"x_max":0,"o":"m 594 308 l 594 507 l 321 507 l 321 614 l 672 614 l 672 811 l 111 811 l 111 0 l 672 0 l 672 199 l 321 199 l 321 308 z m 103 1046 b 215 935 103 982 151 935 b 326 1046 278 935 326 982 b 215 1158 326 1108 278 1158 b 103 1046 151 1158 103 1108 z m 431 1046 b 543 935 431 982 479 935 b 654 1046 606 935 654 982 b 543 1158 654 1108 606 1158 b 431 1046 479 1158 431 1108 z "},"ì":{"ha":383,"x_min":0,"x_max":0,"o":"m 297 806 l 85 806 l 85 0 l 297 0 z m 125 1224 l 28 1086 l 278 931 l 356 1044 z "},"í":{"ha":383,"x_min":0,"x_max":0,"o":"m 297 806 l 85 806 l 85 0 l 297 0 z m 28 1046 l 106 932 l 356 1088 l 258 1225 z "},"î":{"ha":461,"x_min":0,"x_max":0,"o":"m 336 806 l 124 806 l 124 0 l 336 0 z m 231 1224 l 0 1044 l 78 931 l 231 1025 l 383 931 l 461 1044 z "},"ï":{"ha":551,"x_min":0,"x_max":0,"o":"m 382 806 l 169 806 l 169 0 l 382 0 z m 0 1046 b 113 935 0 982 49 935 b 224 1046 175 935 224 982 b 113 1158 224 1108 175 1158 b 0 1046 49 1158 0 1108 z m 328 1046 b 440 935 328 982 376 935 b 551 1046 503 935 551 982 b 440 1158 551 1108 503 1158 b 328 1046 376 1158 328 1108 z "},"ñ":{"ha":888,"x_min":0,"x_max":0,"o":"m 111 804 l 111 0 l 322 0 l 322 369 l 758 -6 l 776 0 l 776 811 l 564 811 l 564 433 l 131 811 z m 299 933 b 374 983 328 983 365 983 b 521 936 428 983 464 936 b 701 1076 578 936 653 971 l 589 1146 b 518 1096 557 1094 529 1096 b 364 1142 461 1096 421 1142 b 186 1003 307 1142 235 1108 z "},"ò":{"ha":953,"x_min":0,"x_max":0,"o":"m 475 822 b 83 410 174 822 83 574 b 475 -10 83 240 174 -10 b 869 410 779 -10 869 240 b 475 822 869 574 779 822 z m 475 190 b 292 410 315 190 292 357 b 475 622 292 463 315 622 b 657 410 635 622 657 463 b 475 190 657 357 635 190 z m 410 1224 l 313 1086 l 563 931 l 640 1044 z "},"ó":{"ha":953,"x_min":0,"x_max":0,"o":"m 475 822 b 83 410 174 822 83 574 b 475 -10 83 240 174 -10 b 869 410 779 -10 869 240 b 475 822 869 574 779 822 z m 475 190 b 292 410 315 190 292 357 b 475 622 292 463 315 622 b 657 410 635 622 657 463 b 475 190 657 357 635 190 z m 313 1046 l 390 932 l 640 1088 l 543 1225 z "},"ô":{"ha":953,"x_min":0,"x_max":0,"o":"m 475 822 b 83 410 174 822 83 574 b 475 -10 83 240 174 -10 b 869 410 779 -10 869 240 b 475 822 869 574 779 822 z m 475 190 b 292 410 315 190 292 357 b 475 622 292 463 315 622 b 657 410 635 622 657 463 b 475 190 657 357 635 190 z m 476 1224 l 246 1044 l 324 931 l 476 1025 l 629 931 l 707 1044 z "},"õ":{"ha":953,"x_min":0,"x_max":0,"o":"m 475 822 b 83 410 174 822 83 574 b 475 -10 83 240 174 -10 b 869 410 779 -10 869 240 b 475 822 869 574 779 822 z m 475 190 b 292 410 315 190 292 357 b 475 622 292 463 315 622 b 657 410 635 622 657 463 b 475 190 657 357 635 190 z m 331 933 b 406 983 360 983 397 983 b 553 936 460 983 496 936 b 733 1076 610 936 685 971 l 621 1146 b 550 1096 589 1094 561 1096 b 396 1142 493 1096 453 1142 b 218 1003 339 1142 267 1108 z "},"ö":{"ha":953,"x_min":0,"x_max":0,"o":"m 475 822 b 83 410 174 822 83 574 b 475 -10 83 240 174 -10 b 869 410 779 -10 869 240 b 475 822 869 574 779 822 z m 475 190 b 292 410 315 190 292 357 b 475 622 292 463 315 622 b 657 410 635 622 657 463 b 475 190 657 357 635 190 z m 200 1046 b 313 935 200 982 249 935 b 424 1046 375 935 424 982 b 313 1158 424 1108 375 1158 b 200 1046 249 1158 200 1108 z m 528 1046 b 640 935 528 982 576 935 b 751 1046 703 935 751 982 b 640 1158 751 1108 703 1158 b 528 1046 576 1158 528 1108 z "},"ù":{"ha":813,"x_min":0,"x_max":0,"o":"m 406 189 b 294 315 317 189 294 281 l 294 811 l 83 811 l 83 315 b 406 -8 83 179 168 -8 b 729 315 646 -8 729 179 l 729 811 l 517 811 l 517 315 b 406 189 517 281 494 189 z m 339 1224 l 242 1086 l 492 931 l 569 1044 z "},"ú":{"ha":813,"x_min":0,"x_max":0,"o":"m 406 189 b 294 315 317 189 294 281 l 294 811 l 83 811 l 83 315 b 406 -8 83 179 168 -8 b 729 315 646 -8 729 179 l 729 811 l 517 811 l 517 315 b 406 189 517 281 494 189 z m 242 1046 l 319 932 l 569 1088 l 472 1225 z "},"û":{"ha":813,"x_min":0,"x_max":0,"o":"m 406 189 b 294 315 317 189 294 281 l 294 811 l 83 811 l 83 315 b 406 -8 83 179 168 -8 b 729 315 646 -8 729 179 l 729 811 l 517 811 l 517 315 b 406 189 517 281 494 189 z m 406 1224 l 175 1044 l 253 931 l 406 1025 l 558 931 l 636 1044 z "},"ü":{"ha":813,"x_min":0,"x_max":0,"o":"m 406 189 b 294 315 317 189 294 281 l 294 811 l 83 811 l 83 315 b 406 -8 83 179 168 -8 b 729 315 646 -8 729 179 l 729 811 l 517 811 l 517 315 b 406 189 517 281 494 189 z m 131 1046 b 243 935 131 982 179 935 b 354 1046 306 935 354 982 b 243 1158 354 1108 306 1158 b 131 1046 179 1158 131 1108 z m 458 1046 b 571 935 458 982 507 935 b 682 1046 633 935 682 982 b 571 1158 682 1108 633 1158 b 458 1046 507 1158 458 1108 z "},"ý":{"ha":846,"x_min":0,"x_max":0,"o":"m 528 353 l 804 811 l 564 811 l 421 568 l 282 811 l 42 811 l 318 351 l 318 0 l 528 0 z m 258 1047 l 336 933 l 586 1089 l 489 1226 z "},"ÿ":{"ha":846,"x_min":0,"x_max":0,"o":"m 147 1046 b 260 935 147 982 196 935 b 371 1046 322 935 371 982 b 260 1158 371 1108 322 1158 b 147 1046 196 1158 147 1108 z m 475 1046 b 588 935 475 982 524 935 b 699 1046 650 935 699 982 b 588 1158 699 1108 650 1158 b 475 1046 524 1158 475 1108 z m 528 353 l 804 811 l 564 811 l 421 568 l 282 811 l 42 811 l 318 351 l 318 0 l 528 0 z "},"ð":{"ha":879,"x_min":0,"x_max":0,"o":"m 32 494 l 32 326 l 111 326 l 111 0 l 403 0 b 796 415 703 0 796 246 b 403 813 796 579 703 813 l 111 813 l 111 494 z m 321 199 l 321 326 l 429 326 l 429 494 l 321 494 l 321 617 l 403 617 b 585 415 561 617 585 467 b 403 199 585 363 561 199 z "},"ø":{"ha":953,"x_min":0,"x_max":0,"o":"m 201 -32 l 265 43 b 475 -10 319 10 389 -10 b 869 410 779 -10 869 240 b 790 671 869 489 847 589 l 868 763 l 753 858 l 681 772 b 475 822 626 803 558 822 b 83 410 174 822 83 574 b 157 149 83 329 104 231 l 86 64 z m 475 190 b 400 206 446 190 421 196 l 643 494 b 657 410 654 460 657 428 b 475 190 657 357 635 190 z m 292 410 b 475 622 292 463 315 622 b 544 610 501 622 525 617 l 304 324 b 292 410 294 358 292 390 z "},"Ğ":{"ha":1019,"x_min":0,"x_max":0,"o":"m 706 329 l 706 233 b 567 193 674 210 614 193 b 310 490 342 193 310 418 b 567 776 310 563 342 776 b 799 667 643 776 742 725 l 936 817 b 567 986 839 921 725 986 b 83 488 197 986 83 690 b 567 -12 83 279 197 -12 b 929 138 719 -12 833 42 l 929 533 l 521 533 l 521 329 z m 626 1329 b 557 1253 614 1271 582 1253 b 486 1328 529 1253 499 1265 l 336 1285 b 557 1094 368 1150 458 1094 b 779 1283 654 1094 746 1151 z "},"ğ":{"ha":871,"x_min":0,"x_max":0,"o":"m 567 278 b 567 211 567 256 567 231 b 475 188 540 200 503 188 b 293 411 315 188 293 358 b 475 624 293 464 315 624 b 653 538 531 624 606 588 l 788 675 b 475 825 700 771 608 825 b 83 411 174 825 83 575 b 475 -12 83 242 174 -12 b 776 115 604 -12 697 42 l 776 454 l 431 454 l 431 278 z m 533 1168 b 464 1092 521 1110 489 1092 b 393 1167 436 1092 406 1104 l 243 1124 b 464 933 275 989 365 933 b 686 1122 561 933 653 990 z "},"İ":{"ha":500,"x_min":0,"x_max":0,"o":"m 361 972 l 139 972 l 139 0 l 361 0 z m 139 1206 b 251 1094 139 1142 188 1094 b 363 1206 314 1094 363 1142 b 251 1318 363 1268 314 1318 b 139 1206 188 1318 139 1268 z "},"ı":{"ha":435,"x_min":0,"x_max":0,"o":"m 324 811 l 111 811 l 111 0 l 324 0 z "},"ş":{"ha":785,"x_min":0,"x_max":0,"o":"m 376 -125 b 442 -165 432 -125 443 -150 b 394 -201 440 -189 421 -201 b 299 -181 361 -201 313 -185 l 261 -283 b 408 -318 304 -303 364 -318 b 574 -165 493 -318 574 -269 b 438 -39 574 -117 539 -42 l 438 -8 b 701 242 596 6 701 119 b 318 581 701 524 318 472 b 367 624 321 607 339 624 b 601 551 429 624 547 574 l 681 735 b 375 821 529 804 421 821 b 106 576 218 821 106 732 b 489 236 106 293 486 325 b 411 188 490 203 456 186 b 172 257 342 190 242 224 l 83 85 b 324 -4 168 36 243 7 l 324 -107 l 342 -125 z "},"µ":{"ha":843,"x_min":0,"x_max":0,"o":"m 111 -276 l 325 -276 l 325 10 b 419 -10 350 -3 388 -10 b 571 43 472 -10 528 8 l 594 0 l 732 0 l 732 694 l 521 694 l 521 228 b 418 182 503 203 465 182 b 325 311 339 182 326 250 l 325 694 l 111 694 z "}}}
